<svg id="Layer_1" data-name="Layer 1" xmlns="http://www.w3.org/2000/svg" viewBox="0 0 286.09 168.93"><defs><style>.cls-1{fill:#808285;}.cls-2{fill:#ffde17;}.cls-3{fill:#6d6e71;}.cls-4{fill:#bcbec0;}.cls-5{fill:#ed1c24;}.cls-6{fill:#fff;}</style></defs><path class="cls-1" d="M175.89,85.74a5,5,0,1,1-9.92,0V46.07a5,5,0,1,1,9.92,0Z" transform="translate(-11.18 -8.36)"/><rect class="cls-1" x="46.34" y="100.64" width="85.61" height="16.87"/><path class="cls-2" d="M282.24,83.73c1.33,0,2.43,2.25,2.43,5v57.43a5,5,0,0,1-5,5H115.32a5,5,0,0,1-5-5V88.73a5,5,0,0,1,5-5h77.17a8.81,8.81,0,0,0,7.21-4.49l26.09-53a8.78,8.78,0,0,1,7.2-4.48H275.5a5,5,0,0,1,4.95,5l-.58,52C279.84,81.48,280.9,83.73,282.24,83.73Z" transform="translate(-11.18 -8.36)"/><polygon class="cls-2" points="46.91 37.35 7.54 122.26 0 138.52 68.53 128.17 92.67 74.14 46.91 37.35"/><rect class="cls-3" x="105.38" y="118.14" width="163.25" height="50.79" rx="25"/><rect class="cls-1" x="273.48" y="82.38" width="12.61" height="49.67" rx="5"/><circle class="cls-4" cx="131.94" cy="143.54" r="11.48"/><circle class="cls-4" cx="243.73" cy="143.54" r="11.48"/><circle class="cls-4" cx="187.65" cy="143.54" r="11.48"/><path class="cls-5" d="M247,21.73V13.36a5,5,0,0,1,5-5h5.8a5,5,0,0,1,5,5v8.37" transform="translate(-11.18 -8.36)"/><path class="cls-6" d="M233.77,38.35A8.9,8.9,0,0,1,241,33.87h23.61a5,5,0,0,1,5,5V78.73a5,5,0,0,1-5,5H216.08c-2.75,0-4-2-2.76-4.48Z" transform="translate(-11.18 -8.36)"/></svg>