<svg id="Layer_1" data-name="Layer 1" xmlns="http://www.w3.org/2000/svg" viewBox="0 0 294.16 174.93"><defs><style>.cls-1{fill:#ed1c24;}.cls-2{fill:none;}.cls-2,.cls-4,.cls-6,.cls-8{stroke:#231f20;stroke-miterlimit:10;stroke-width:6px;}.cls-3,.cls-4{fill:#808285;}.cls-5,.cls-6{fill:#ffde17;}.cls-7{fill:#6d6e71;}.cls-8{fill:#bcbec0;}.cls-9{fill:#fff;}</style></defs><path class="cls-1" d="M247,21.73V13.36a5,5,0,0,1,5-5h5.8a5,5,0,0,1,5,5v8.37" transform="translate(-6.11 -5.36)"/><path class="cls-2" d="M247,21.73V13.36a5,5,0,0,1,5-5h5.8a5,5,0,0,1,5,5v8.37" transform="translate(-6.11 -5.36)"/><path class="cls-3" d="M175.89,85.74a5,5,0,1,1-9.92,0V46.07a5,5,0,1,1,9.92,0Z" transform="translate(-6.11 -5.36)"/><path class="cls-2" d="M175.89,85.74a5,5,0,1,1-9.92,0V46.07a5,5,0,1,1,9.92,0Z" transform="translate(-6.11 -5.36)"/><rect class="cls-4" x="51.4" y="103.64" width="85.61" height="16.87"/><path class="cls-5" d="M282.24,83.73c1.33,0,2.43,2.25,2.43,5v57.43a5,5,0,0,1-5,5H115.32a5,5,0,0,1-5-5V88.73a5,5,0,0,1,5-5h77.17a8.81,8.81,0,0,0,7.21-4.49l26.09-53a8.78,8.78,0,0,1,7.2-4.48H275.5a5,5,0,0,1,4.95,5l-.58,52C279.84,81.48,280.9,83.73,282.24,83.73Z" transform="translate(-6.11 -5.36)"/><path class="cls-2" d="M282.24,83.73c1.33,0,2.43,2.25,2.43,5v57.43a5,5,0,0,1-5,5H115.32a5,5,0,0,1-5-5V88.73a5,5,0,0,1,5-5h77.17a8.81,8.81,0,0,0,7.21-4.49l26.09-53a8.78,8.78,0,0,1,7.2-4.48H275.5a5,5,0,0,1,4.95,5l-.58,52C279.84,81.48,280.9,83.73,282.24,83.73Z" transform="translate(-6.11 -5.36)"/><polygon class="cls-6" points="51.97 40.35 12.61 125.26 5.07 141.52 73.6 131.17 97.74 77.14 51.97 40.35"/><rect class="cls-7" x="110.45" y="121.14" width="163.25" height="50.79" rx="25"/><rect class="cls-2" x="110.45" y="121.14" width="163.25" height="50.79" rx="25"/><rect class="cls-3" x="278.55" y="85.38" width="12.61" height="49.67" rx="5"/><rect class="cls-2" x="278.55" y="85.38" width="12.61" height="49.67" rx="5"/><circle class="cls-8" cx="137.01" cy="146.54" r="11.48"/><circle class="cls-8" cx="248.8" cy="146.54" r="11.48"/><circle class="cls-8" cx="192.72" cy="146.54" r="11.48"/><path class="cls-9" d="M233.77,38.35A8.9,8.9,0,0,1,241,33.87h23.61a5,5,0,0,1,5,5V78.73a5,5,0,0,1-5,5H216.08c-2.75,0-4-2-2.76-4.48Z" transform="translate(-6.11 -5.36)"/><path class="cls-2" d="M233.77,38.35A8.9,8.9,0,0,1,241,33.87h23.61a5,5,0,0,1,5,5V78.73a5,5,0,0,1-5,5H216.08c-2.75,0-4-2-2.76-4.48Z" transform="translate(-6.11 -5.36)"/></svg>