<svg id="Layer_1" data-name="Layer 1" xmlns="http://www.w3.org/2000/svg" viewBox="0 0 286.09 168.93"><defs><style>.cls-1{fill:#808285;}.cls-2{fill:#ffde17;}.cls-3{fill:#6d6e71;}.cls-4{fill:#bcbec0;}.cls-5{fill:#ed1c24;}</style></defs><path class="cls-1" d="M175.89,85.74a5,5,0,1,1-9.92,0V46.07a5,5,0,1,1,9.92,0Z" transform="translate(-11.18 -8.36)"/><rect class="cls-1" x="46.34" y="100.64" width="85.61" height="16.87"/><path class="cls-2" d="M110.32,146.16a5,5,0,0,0,5,5H279.67a5,5,0,0,0,5-5V88.73a5,5,0,0,0-5-5H115.32a5,5,0,0,0-5,5Z" transform="translate(-11.18 -8.36)"/><polygon class="cls-2" points="46.91 37.35 7.54 122.26 0 138.52 68.53 128.17 92.67 74.14 46.91 37.35"/><rect class="cls-3" x="105.38" y="118.14" width="163.25" height="50.79" rx="25"/><path class="cls-2" d="M233,21.73a8.46,8.46,0,0,0-7.07,4.55L200.26,82.74c-1.14,2.5.18,4.55,2.93,4.55h4.9a8.43,8.43,0,0,0,7-4.56l25.32-56.44c1.13-2.51-.2-4.56-3-4.56Z" transform="translate(-11.18 -8.36)"/><rect class="cls-2" x="256.13" y="13.36" width="13.19" height="74.57" rx="5"/><rect class="cls-2" x="217.65" y="13.36" width="47.67" height="11.49" rx="5"/><circle class="cls-4" cx="131.94" cy="143.54" r="11.48"/><circle class="cls-4" cx="243.73" cy="143.54" r="11.48"/><circle class="cls-4" cx="187.65" cy="143.54" r="11.48"/><path class="cls-5" d="M247,21.73V13.36a5,5,0,0,1,5-5h5.8a5,5,0,0,1,5,5v8.37" transform="translate(-11.18 -8.36)"/><rect class="cls-1" x="273.48" y="82.38" width="12.61" height="49.67" rx="5"/></svg>