<svg id="Layer_1" data-name="Layer 1" xmlns="http://www.w3.org/2000/svg" viewBox="0 0 84.71 88.68"><defs><style>.cls-1{fill:#27aae1;stroke:#231f20;stroke-miterlimit:10;stroke-width:2px;}</style></defs><path class="cls-1" d="M10.71,40.53c-3.17,5.76,1.57,9.94,6.8,11.4-5.13,7.93,2.68,15.24,8.19,20.39,16.82,5.74,5.24,4,0,13.07-2.14,6,2.22,4.6,6.27,5.75,7-.07,6-.54,12,3.13,6.92.12,15.71-1.33,22.65-.87,7.56-4.52,16.63-5.64,24-10.63,1.35-4.78,4.65-17.11-4.53-11.5,2.47-19.79-11.71-38.53-32.76-31.72-4.69.2-12.91.29-15.86-4.18-2.91-8.35,17.1-12,21.78-15.16C64.06-3.95,45.9,13,37.2,18.82c1.71-6.61,2.29-11.3-6.1-8.54-2.2,2.54-5.28,10.41-6.44,13.59C14.35,24.46,11.77,31.24,10.71,40.53Z" transform="translate(-8.69 -6.6)"/></svg>