<svg id="Layer_1" data-name="Layer 1" xmlns="http://www.w3.org/2000/svg" viewBox="0 0 1892.35 920"><defs><style>.cls-1{fill:#a1dbe8;}.cls-2{fill:#010101;}.cls-3,.cls-5{fill:#6cbe45;}.cls-4{fill:none;}.cls-4,.cls-5{stroke:#010101;stroke-miterlimit:10;stroke-width:7px;}</style></defs><circle class="cls-1" cx="45" cy="294" r="41.5"/><path class="cls-2" d="M84.63,271.7a38,38,0,1,1-38,38,38,38,0,0,1,38-38m0-7a45,45,0,1,0,45,45,45,45,0,0,0-45-45Z" transform="translate(-39.63 -15.7)"/><circle class="cls-1" cx="45" cy="460" r="41.5"/><path class="cls-2" d="M84.63,437.7a38,38,0,1,1-38,38,38,38,0,0,1,38-38m0-7a45,45,0,1,0,45,45,45,45,0,0,0-45-45Z" transform="translate(-39.63 -15.7)"/><circle class="cls-1" cx="45" cy="626" r="41.5"/><path class="cls-2" d="M84.63,603.7a38,38,0,1,1-38,38,38,38,0,0,1,38-38m0-7a45,45,0,1,0,45,45,45,45,0,0,0-45-45Z" transform="translate(-39.63 -15.7)"/><circle class="cls-3" cx="345" cy="543" r="41.5"/><path class="cls-2" d="M384.63,520.7a38,38,0,1,1-38,38,38,38,0,0,1,38-38m0-7a45,45,0,1,0,45,45,45,45,0,0,0-45-45Z" transform="translate(-39.63 -15.7)"/><circle class="cls-3" cx="345" cy="709" r="41.5"/><path class="cls-2" d="M384.63,686.7a38,38,0,1,1-38,38,38,38,0,0,1,38-38m0-7a45,45,0,1,0,45,45,45,45,0,0,0-45-45Z" transform="translate(-39.63 -15.7)"/><circle class="cls-3" cx="345" cy="875" r="41.5"/><path class="cls-2" d="M384.63,852.7a38,38,0,1,1-38,38,38,38,0,0,1,38-38m0-7a45,45,0,1,0,45,45,45,45,0,0,0-45-45Z" transform="translate(-39.63 -15.7)"/><circle class="cls-3" cx="345" cy="45" r="41.5"/><path class="cls-2" d="M384.63,22.7a38,38,0,1,1-38,38,38,38,0,0,1,38-38m0-7a45,45,0,1,0,45,45,45,45,0,0,0-45-45Z" transform="translate(-39.63 -15.7)"/><circle class="cls-3" cx="345" cy="211" r="41.5"/><path class="cls-2" d="M384.63,188.7a38,38,0,1,1-38,38,38,38,0,0,1,38-38m0-7a45,45,0,1,0,45,45,45,45,0,0,0-45-45Z" transform="translate(-39.63 -15.7)"/><circle class="cls-3" cx="345" cy="377" r="41.5"/><path class="cls-2" d="M384.63,354.7a38,38,0,1,1-38,38,38,38,0,0,1,38-38m0-7a45,45,0,1,0,45,45,45,45,0,0,0-45-45Z" transform="translate(-39.63 -15.7)"/><circle class="cls-3" cx="645" cy="543" r="41.5"/><path class="cls-2" d="M684.63,520.7a38,38,0,1,1-38,38,38,38,0,0,1,38-38m0-7a45,45,0,1,0,45,45,45,45,0,0,0-45-45Z" transform="translate(-39.63 -15.7)"/><circle class="cls-3" cx="645" cy="709" r="41.5"/><path class="cls-2" d="M684.63,686.7a38,38,0,1,1-38,38,38,38,0,0,1,38-38m0-7a45,45,0,1,0,45,45,45,45,0,0,0-45-45Z" transform="translate(-39.63 -15.7)"/><circle class="cls-3" cx="645" cy="875" r="41.5"/><path class="cls-2" d="M684.63,852.7a38,38,0,1,1-38,38,38,38,0,0,1,38-38m0-7a45,45,0,1,0,45,45,45,45,0,0,0-45-45Z" transform="translate(-39.63 -15.7)"/><circle class="cls-3" cx="645" cy="45" r="41.5"/><path class="cls-2" d="M684.63,22.7a38,38,0,1,1-38,38,38,38,0,0,1,38-38m0-7a45,45,0,1,0,45,45,45,45,0,0,0-45-45Z" transform="translate(-39.63 -15.7)"/><circle class="cls-3" cx="645" cy="211" r="41.5"/><path class="cls-2" d="M684.63,188.7a38,38,0,1,1-38,38,38,38,0,0,1,38-38m0-7a45,45,0,1,0,45,45,45,45,0,0,0-45-45Z" transform="translate(-39.63 -15.7)"/><circle class="cls-3" cx="645" cy="377" r="41.5"/><path class="cls-2" d="M684.63,354.7a38,38,0,1,1-38,38,38,38,0,0,1,38-38m0-7a45,45,0,1,0,45,45,45,45,0,0,0-45-45Z" transform="translate(-39.63 -15.7)"/><line class="cls-4" x1="90" y1="294" x2="300" y2="45"/><line class="cls-3" x1="90" y1="294" x2="300" y2="45"/><line class="cls-5" x1="300" y1="211" x2="90" y2="294"/><line class="cls-5" x1="300" y1="377" x2="90" y2="294"/><line class="cls-5" x1="300" y1="543" x2="90" y2="294"/><line class="cls-5" x1="300" y1="709" x2="90" y2="294"/><line class="cls-5" x1="300" y1="45" x2="90" y2="460"/><line class="cls-5" x1="300" y1="211" x2="90" y2="460"/><line class="cls-5" x1="300" y1="377" x2="90" y2="460"/><line class="cls-5" x1="300" y1="543" x2="90" y2="460"/><line class="cls-5" x1="300" y1="709" x2="90" y2="626"/><line class="cls-5" x1="300" y1="45" x2="90" y2="626"/><line class="cls-5" x1="300" y1="211" x2="90" y2="626"/><line class="cls-5" x1="300" y1="377" x2="90" y2="626"/><line class="cls-5" x1="300" y1="543" x2="90" y2="626"/><line class="cls-5" x1="300" y1="875" x2="90" y2="626"/><line class="cls-5" x1="90" y1="460" x2="300" y2="875"/><line class="cls-5" x1="90" y1="294" x2="300" y2="875"/><line class="cls-4" x1="392.35" y1="45" x2="602.35" y2="45"/><line class="cls-3" x1="392.35" y1="45" x2="602.35" y2="45"/><line class="cls-5" x1="390" y1="211" x2="600" y2="211"/><line class="cls-5" x1="600" y1="377" x2="390" y2="377"/><line class="cls-5" x1="390" y1="543" x2="600" y2="543"/><line class="cls-5" x1="600" y1="709" x2="390" y2="709"/><line class="cls-5" x1="600" y1="45" x2="390" y2="211"/><line class="cls-5" x1="600" y1="211" x2="390" y2="377"/><line class="cls-5" x1="600" y1="377" x2="390" y2="543"/><line class="cls-5" x1="600" y1="543" x2="390" y2="709"/><line class="cls-5" x1="600" y1="709" x2="390" y2="875"/><line class="cls-5" x1="390" y1="45" x2="600" y2="211"/><line class="cls-5" x1="390" y1="211" x2="600" y2="377"/><line class="cls-5" x1="390" y1="377" x2="600" y2="543"/><line class="cls-5" x1="390" y1="543" x2="600" y2="709"/><line class="cls-5" x1="390" y1="709" x2="600" y2="875"/><line class="cls-5" x1="600" y1="45" x2="390" y2="377"/><line class="cls-5" x1="390" y1="45" x2="600" y2="377"/><line class="cls-5" x1="600" y1="211" x2="390" y2="543"/><line class="cls-5" x1="390" y1="211" x2="600" y2="543"/><line class="cls-5" x1="600" y1="377" x2="390" y2="709"/><line class="cls-5" x1="390" y1="543" x2="600" y2="875"/><line class="cls-5" x1="600" y1="543" x2="390" y2="875"/><line class="cls-5" x1="390" y1="377" x2="600" y2="709"/><line class="cls-5" x1="600" y1="45" x2="390" y2="543"/><line class="cls-5" x1="390" y1="45" x2="600" y2="543"/><line class="cls-5" x1="600" y1="211" x2="390" y2="709"/><line class="cls-5" x1="390" y1="211" x2="600" y2="709"/><line class="cls-5" x1="600" y1="377" x2="390" y2="875"/><line class="cls-5" x1="390" y1="377" x2="600" y2="875"/><line class="cls-5" x1="600" y1="45" x2="390" y2="709"/><line class="cls-5" x1="390" y1="45" x2="600" y2="709"/><line class="cls-5" x1="600" y1="211" x2="390" y2="875"/><line class="cls-5" x1="390" y1="211" x2="600" y2="875"/><line class="cls-5" x1="600" y1="45" x2="390" y2="875"/><line class="cls-5" x1="390" y1="45" x2="600" y2="875"/><circle class="cls-3" cx="945" cy="543" r="41.5"/><path class="cls-2" d="M984.63,520.7a38,38,0,1,1-38,38,38,38,0,0,1,38-38m0-7a45,45,0,1,0,45,45,45,45,0,0,0-45-45Z" transform="translate(-39.63 -15.7)"/><circle class="cls-3" cx="945" cy="709" r="41.5"/><path class="cls-2" d="M984.63,686.7a38,38,0,1,1-38,38,38,38,0,0,1,38-38m0-7a45,45,0,1,0,45,45,45,45,0,0,0-45-45Z" transform="translate(-39.63 -15.7)"/><circle class="cls-3" cx="945" cy="875" r="41.5"/><path class="cls-2" d="M984.63,852.7a38,38,0,1,1-38,38,38,38,0,0,1,38-38m0-7a45,45,0,1,0,45,45,45,45,0,0,0-45-45Z" transform="translate(-39.63 -15.7)"/><circle class="cls-3" cx="945" cy="45" r="41.5"/><path class="cls-2" d="M984.63,22.7a38,38,0,1,1-38,38,38,38,0,0,1,38-38m0-7a45,45,0,1,0,45,45,45,45,0,0,0-45-45Z" transform="translate(-39.63 -15.7)"/><circle class="cls-3" cx="945" cy="211" r="41.5"/><path class="cls-2" d="M984.63,188.7a38,38,0,1,1-38,38,38,38,0,0,1,38-38m0-7a45,45,0,1,0,45,45,45,45,0,0,0-45-45Z" transform="translate(-39.63 -15.7)"/><circle class="cls-3" cx="945" cy="377" r="41.5"/><path class="cls-2" d="M984.63,354.7a38,38,0,1,1-38,38,38,38,0,0,1,38-38m0-7a45,45,0,1,0,45,45,45,45,0,0,0-45-45Z" transform="translate(-39.63 -15.7)"/><line class="cls-4" x1="692.35" y1="45" x2="902.35" y2="45"/><line class="cls-3" x1="692.35" y1="45" x2="902.35" y2="45"/><line class="cls-5" x1="690" y1="211" x2="900" y2="211"/><line class="cls-5" x1="900" y1="377" x2="690" y2="377"/><line class="cls-5" x1="690" y1="543" x2="900" y2="543"/><line class="cls-5" x1="900" y1="709" x2="690" y2="709"/><line class="cls-5" x1="900" y1="45" x2="690" y2="211"/><line class="cls-5" x1="900" y1="211" x2="690" y2="377"/><line class="cls-5" x1="900" y1="377" x2="690" y2="543"/><line class="cls-5" x1="900" y1="543" x2="690" y2="709"/><line class="cls-5" x1="900" y1="709" x2="690" y2="875"/><line class="cls-5" x1="690" y1="45" x2="900" y2="211"/><line class="cls-5" x1="690" y1="211" x2="900" y2="377"/><line class="cls-5" x1="690" y1="377" x2="900" y2="543"/><line class="cls-5" x1="690" y1="543" x2="900" y2="709"/><line class="cls-5" x1="690" y1="709" x2="900" y2="875"/><line class="cls-5" x1="900" y1="45" x2="690" y2="377"/><line class="cls-5" x1="690" y1="45" x2="900" y2="377"/><line class="cls-5" x1="900" y1="211" x2="690" y2="543"/><line class="cls-5" x1="690" y1="211" x2="900" y2="543"/><line class="cls-5" x1="900" y1="377" x2="690" y2="709"/><line class="cls-5" x1="690" y1="543" x2="900" y2="875"/><line class="cls-5" x1="900" y1="543" x2="690" y2="875"/><line class="cls-5" x1="690" y1="377" x2="900" y2="709"/><line class="cls-5" x1="900" y1="45" x2="690" y2="543"/><line class="cls-5" x1="690" y1="45" x2="900" y2="543"/><line class="cls-5" x1="900" y1="211" x2="690" y2="709"/><line class="cls-5" x1="690" y1="211" x2="900" y2="709"/><line class="cls-5" x1="900" y1="377" x2="690" y2="875"/><line class="cls-5" x1="690" y1="377" x2="900" y2="875"/><line class="cls-5" x1="900" y1="45" x2="690" y2="709"/><line class="cls-5" x1="690" y1="45" x2="900" y2="709"/><line class="cls-5" x1="900" y1="211" x2="690" y2="875"/><line class="cls-5" x1="690" y1="211" x2="900" y2="875"/><line class="cls-5" x1="900" y1="45" x2="690" y2="875"/><line class="cls-5" x1="690" y1="45" x2="900" y2="875"/><circle class="cls-3" cx="1245" cy="543" r="41.5"/><path class="cls-2" d="M1284.63,520.7a38,38,0,1,1-38,38,38,38,0,0,1,38-38m0-7a45,45,0,1,0,45,45,45,45,0,0,0-45-45Z" transform="translate(-39.63 -15.7)"/><circle class="cls-3" cx="1245" cy="709" r="41.5"/><path class="cls-2" d="M1284.63,686.7a38,38,0,1,1-38,38,38,38,0,0,1,38-38m0-7a45,45,0,1,0,45,45,45,45,0,0,0-45-45Z" transform="translate(-39.63 -15.7)"/><circle class="cls-3" cx="1245" cy="875" r="41.5"/><path class="cls-2" d="M1284.63,852.7a38,38,0,1,1-38,38,38,38,0,0,1,38-38m0-7a45,45,0,1,0,45,45,45,45,0,0,0-45-45Z" transform="translate(-39.63 -15.7)"/><circle class="cls-3" cx="1245" cy="45" r="41.5"/><path class="cls-2" d="M1284.63,22.7a38,38,0,1,1-38,38,38,38,0,0,1,38-38m0-7a45,45,0,1,0,45,45,45,45,0,0,0-45-45Z" transform="translate(-39.63 -15.7)"/><circle class="cls-3" cx="1245" cy="211" r="41.5"/><path class="cls-2" d="M1284.63,188.7a38,38,0,1,1-38,38,38,38,0,0,1,38-38m0-7a45,45,0,1,0,45,45,45,45,0,0,0-45-45Z" transform="translate(-39.63 -15.7)"/><circle class="cls-3" cx="1245" cy="377" r="41.5"/><path class="cls-2" d="M1284.63,354.7a38,38,0,1,1-38,38,38,38,0,0,1,38-38m0-7a45,45,0,1,0,45,45,45,45,0,0,0-45-45Z" transform="translate(-39.63 -15.7)"/><line class="cls-4" x1="992.35" y1="45" x2="1202.35" y2="45"/><line class="cls-3" x1="992.35" y1="45" x2="1202.35" y2="45"/><line class="cls-5" x1="990" y1="211" x2="1200" y2="211"/><line class="cls-5" x1="1200" y1="377" x2="990" y2="377"/><line class="cls-5" x1="990" y1="543" x2="1200" y2="543"/><line class="cls-5" x1="1200" y1="709" x2="990" y2="709"/><line class="cls-5" x1="1200" y1="45" x2="990" y2="211"/><line class="cls-5" x1="1200" y1="211" x2="990" y2="377"/><line class="cls-5" x1="1200" y1="377" x2="990" y2="543"/><line class="cls-5" x1="1200" y1="543" x2="990" y2="709"/><line class="cls-5" x1="1200" y1="709" x2="990" y2="875"/><line class="cls-5" x1="990" y1="45" x2="1200" y2="211"/><line class="cls-5" x1="990" y1="211" x2="1200" y2="377"/><line class="cls-5" x1="990" y1="377" x2="1200" y2="543"/><line class="cls-5" x1="990" y1="543" x2="1200" y2="709"/><line class="cls-5" x1="990" y1="709" x2="1200" y2="875"/><line class="cls-5" x1="1200" y1="45" x2="990" y2="377"/><line class="cls-5" x1="990" y1="45" x2="1200" y2="377"/><line class="cls-5" x1="1200" y1="211" x2="990" y2="543"/><line class="cls-5" x1="990" y1="211" x2="1200" y2="543"/><line class="cls-5" x1="1200" y1="377" x2="990" y2="709"/><line class="cls-5" x1="990" y1="543" x2="1200" y2="875"/><line class="cls-5" x1="1200" y1="543" x2="990" y2="875"/><line class="cls-5" x1="990" y1="377" x2="1200" y2="709"/><line class="cls-5" x1="1200" y1="45" x2="990" y2="543"/><line class="cls-5" x1="990" y1="45" x2="1200" y2="543"/><line class="cls-5" x1="1200" y1="211" x2="990" y2="709"/><line class="cls-5" x1="990" y1="211" x2="1200" y2="709"/><line class="cls-5" x1="1200" y1="377" x2="990" y2="875"/><line class="cls-5" x1="990" y1="377" x2="1200" y2="875"/><line class="cls-5" x1="1200" y1="45" x2="990" y2="709"/><line class="cls-5" x1="990" y1="45" x2="1200" y2="709"/><line class="cls-5" x1="1200" y1="211" x2="990" y2="875"/><line class="cls-5" x1="990" y1="211" x2="1200" y2="875"/><line class="cls-5" x1="1200" y1="45" x2="990" y2="875"/><line class="cls-5" x1="990" y1="45" x2="1200" y2="875"/><circle class="cls-3" cx="1547.35" cy="543" r="41.5"/><path class="cls-2" d="M1587,520.7a38,38,0,1,1-38,38,38,38,0,0,1,38-38m0-7a45,45,0,1,0,45,45,45,45,0,0,0-45-45Z" transform="translate(-39.63 -15.7)"/><circle class="cls-3" cx="1547.35" cy="709" r="41.5"/><path class="cls-2" d="M1587,686.7a38,38,0,1,1-38,38,38,38,0,0,1,38-38m0-7a45,45,0,1,0,45,45,45,45,0,0,0-45-45Z" transform="translate(-39.63 -15.7)"/><circle class="cls-3" cx="1547.35" cy="875" r="41.5"/><path class="cls-2" d="M1587,852.7a38,38,0,1,1-38,38,38,38,0,0,1,38-38m0-7a45,45,0,1,0,45,45,45,45,0,0,0-45-45Z" transform="translate(-39.63 -15.7)"/><circle class="cls-3" cx="1547.35" cy="45" r="41.5"/><path class="cls-2" d="M1587,22.7a38,38,0,1,1-38,38,38,38,0,0,1,38-38m0-7a45,45,0,1,0,45,45,45,45,0,0,0-45-45Z" transform="translate(-39.63 -15.7)"/><circle class="cls-3" cx="1547.35" cy="211" r="41.5"/><path class="cls-2" d="M1587,188.7a38,38,0,1,1-38,38,38,38,0,0,1,38-38m0-7a45,45,0,1,0,45,45,45,45,0,0,0-45-45Z" transform="translate(-39.63 -15.7)"/><circle class="cls-3" cx="1547.35" cy="377" r="41.5"/><path class="cls-2" d="M1587,354.7a38,38,0,1,1-38,38,38,38,0,0,1,38-38m0-7a45,45,0,1,0,45,45,45,45,0,0,0-45-45Z" transform="translate(-39.63 -15.7)"/><line class="cls-4" x1="1292.35" y1="45" x2="1502.35" y2="45"/><line class="cls-3" x1="1292.35" y1="45" x2="1502.35" y2="45"/><line class="cls-5" x1="1292.35" y1="211" x2="1502.35" y2="211"/><line class="cls-5" x1="1502.35" y1="377" x2="1292.35" y2="377"/><line class="cls-5" x1="1292.35" y1="543" x2="1502.35" y2="543"/><line class="cls-5" x1="1502.35" y1="709" x2="1292.35" y2="709"/><line class="cls-5" x1="1502.35" y1="45" x2="1292.35" y2="211"/><line class="cls-5" x1="1502.35" y1="211" x2="1292.35" y2="377"/><line class="cls-5" x1="1502.35" y1="377" x2="1292.35" y2="543"/><line class="cls-5" x1="1502.35" y1="543" x2="1292.35" y2="709"/><line class="cls-5" x1="1502.35" y1="709" x2="1292.35" y2="875"/><line class="cls-5" x1="1292.35" y1="45" x2="1502.35" y2="211"/><line class="cls-5" x1="1292.35" y1="211" x2="1502.35" y2="377"/><line class="cls-5" x1="1292.35" y1="377" x2="1502.35" y2="543"/><line class="cls-5" x1="1292.35" y1="543" x2="1502.35" y2="709"/><line class="cls-5" x1="1292.35" y1="709" x2="1502.35" y2="875"/><line class="cls-5" x1="1502.35" y1="45" x2="1292.35" y2="377"/><line class="cls-5" x1="1292.35" y1="45" x2="1502.35" y2="377"/><line class="cls-5" x1="1502.35" y1="211" x2="1292.35" y2="543"/><line class="cls-5" x1="1292.35" y1="211" x2="1502.35" y2="543"/><line class="cls-5" x1="1502.35" y1="377" x2="1292.35" y2="709"/><line class="cls-5" x1="1292.35" y1="543" x2="1502.35" y2="875"/><line class="cls-5" x1="1502.35" y1="543" x2="1292.35" y2="875"/><line class="cls-5" x1="1292.35" y1="377" x2="1502.35" y2="709"/><line class="cls-5" x1="1502.35" y1="45" x2="1292.35" y2="543"/><line class="cls-5" x1="1292.35" y1="45" x2="1502.35" y2="543"/><line class="cls-5" x1="1502.35" y1="211" x2="1292.35" y2="709"/><line class="cls-5" x1="1292.35" y1="211" x2="1502.35" y2="709"/><line class="cls-5" x1="1502.35" y1="377" x2="1292.35" y2="875"/><line class="cls-5" x1="1292.35" y1="377" x2="1502.35" y2="875"/><line class="cls-5" x1="1502.35" y1="45" x2="1292.35" y2="709"/><line class="cls-5" x1="1292.35" y1="45" x2="1502.35" y2="709"/><line class="cls-5" x1="1502.35" y1="211" x2="1292.35" y2="875"/><line class="cls-5" x1="1292.35" y1="211" x2="1502.35" y2="875"/><line class="cls-5" x1="1502.35" y1="45" x2="1292.35" y2="875"/><line class="cls-5" x1="1292.35" y1="45" x2="1502.35" y2="875"/><circle class="cls-3" cx="1847.35" cy="543" r="41.5"/><path class="cls-2" d="M1887,520.7a38,38,0,1,1-38,38,38,38,0,0,1,38-38m0-7a45,45,0,1,0,45,45,45,45,0,0,0-45-45Z" transform="translate(-39.63 -15.7)"/><circle class="cls-3" cx="1847.35" cy="709" r="41.5"/><path class="cls-2" d="M1887,686.7a38,38,0,1,1-38,38,38,38,0,0,1,38-38m0-7a45,45,0,1,0,45,45,45,45,0,0,0-45-45Z" transform="translate(-39.63 -15.7)"/><circle class="cls-3" cx="1847.35" cy="875" r="41.5"/><path class="cls-2" d="M1887,852.7a38,38,0,1,1-38,38,38,38,0,0,1,38-38m0-7a45,45,0,1,0,45,45,45,45,0,0,0-45-45Z" transform="translate(-39.63 -15.7)"/><circle class="cls-3" cx="1847.35" cy="45" r="41.5"/><path class="cls-2" d="M1887,22.7a38,38,0,1,1-38,38,38,38,0,0,1,38-38m0-7a45,45,0,1,0,45,45,45,45,0,0,0-45-45Z" transform="translate(-39.63 -15.7)"/><circle class="cls-3" cx="1847.35" cy="211" r="41.5"/><path class="cls-2" d="M1887,188.7a38,38,0,1,1-38,38,38,38,0,0,1,38-38m0-7a45,45,0,1,0,45,45,45,45,0,0,0-45-45Z" transform="translate(-39.63 -15.7)"/><circle class="cls-3" cx="1847.35" cy="377" r="41.5"/><path class="cls-2" d="M1887,354.7a38,38,0,1,1-38,38,38,38,0,0,1,38-38m0-7a45,45,0,1,0,45,45,45,45,0,0,0-45-45Z" transform="translate(-39.63 -15.7)"/><line class="cls-4" x1="1592.35" y1="45" x2="1802.35" y2="45"/><line class="cls-3" x1="1592.35" y1="45" x2="1802.35" y2="45"/><line class="cls-5" x1="1592.35" y1="211" x2="1802.35" y2="211"/><line class="cls-5" x1="1802.35" y1="377" x2="1592.35" y2="377"/><line class="cls-5" x1="1592.35" y1="543" x2="1802.35" y2="543"/><line class="cls-5" x1="1802.35" y1="709" x2="1592.35" y2="709"/><line class="cls-5" x1="1802.35" y1="45" x2="1592.35" y2="211"/><line class="cls-5" x1="1802.35" y1="211" x2="1592.35" y2="377"/><line class="cls-5" x1="1802.35" y1="377" x2="1592.35" y2="543"/><line class="cls-5" x1="1802.35" y1="543" x2="1592.35" y2="709"/><line class="cls-5" x1="1802.35" y1="709" x2="1592.35" y2="875"/><line class="cls-5" x1="1592.35" y1="45" x2="1802.35" y2="211"/><line class="cls-5" x1="1592.35" y1="211" x2="1802.35" y2="377"/><line class="cls-5" x1="1592.35" y1="377" x2="1802.35" y2="543"/><line class="cls-5" x1="1592.35" y1="543" x2="1802.35" y2="709"/><line class="cls-5" x1="1592.35" y1="709" x2="1802.35" y2="875"/><line class="cls-5" x1="1802.35" y1="45" x2="1592.35" y2="377"/><line class="cls-5" x1="1592.35" y1="45" x2="1802.35" y2="377"/><line class="cls-5" x1="1802.35" y1="211" x2="1592.35" y2="543"/><line class="cls-5" x1="1592.35" y1="211" x2="1802.35" y2="543"/><line class="cls-5" x1="1802.35" y1="377" x2="1592.35" y2="709"/><line class="cls-5" x1="1592.35" y1="543" x2="1802.35" y2="875"/><line class="cls-5" x1="1802.35" y1="543" x2="1592.35" y2="875"/><line class="cls-5" x1="1592.35" y1="377" x2="1802.35" y2="709"/><line class="cls-5" x1="1802.35" y1="45" x2="1592.35" y2="543"/><line class="cls-5" x1="1592.35" y1="45" x2="1802.35" y2="543"/><line class="cls-5" x1="1802.35" y1="211" x2="1592.35" y2="709"/><line class="cls-5" x1="1592.35" y1="211" x2="1802.35" y2="709"/><line class="cls-5" x1="1802.35" y1="377" x2="1592.35" y2="875"/><line class="cls-5" x1="1592.35" y1="377" x2="1802.35" y2="875"/><line class="cls-5" x1="1802.35" y1="45" x2="1592.35" y2="709"/><line class="cls-5" x1="1592.35" y1="45" x2="1802.35" y2="709"/><line class="cls-5" x1="1802.35" y1="211" x2="1592.35" y2="875"/><line class="cls-5" x1="1592.35" y1="211" x2="1802.35" y2="875"/><line class="cls-5" x1="1802.35" y1="45" x2="1592.35" y2="875"/><line class="cls-5" x1="1592.35" y1="45" x2="1802.35" y2="875"/></svg>