<svg id="Layer_1" data-name="Layer 1" xmlns="http://www.w3.org/2000/svg" viewBox="0 0 348.32 346.93"><defs><style>.cls-1{fill:#1c75bc;}.cls-2,.cls-5{fill:none;stroke-miterlimit:10;stroke-width:7px;}.cls-2{stroke:#231f20;}.cls-3{fill:#58595b;}.cls-4{fill:#e6e7e8;}.cls-5{stroke:#bcbec0;}</style></defs><path class="cls-1" d="M23.84,16.42a10,10,0,0,0-10,10V353.35a10,10,0,0,0,10,10H352.16a10,10,0,0,0,10-10V61.88c0-5.5-3.21-13.15-7.14-17L333.15,23.42c-3.93-3.85-11.64-7-17.14-7Z" transform="translate(-13.84 -16.42)"/><path class="cls-2" d="M57.64,16.42" transform="translate(-13.84 -16.42)"/><rect class="cls-3" x="43.8" width="236.38" height="117.5" rx="10"/><path class="cls-2" d="M209.9,42.84" transform="translate(-13.84 -16.42)"/><rect class="cls-4" x="94.55" width="185.63" height="117.5" rx="10"/><rect class="cls-3" x="208.88" y="16.69" width="56.09" height="84.12"/><rect class="cls-4" x="47.97" y="157.13" width="253.77" height="178.68" rx="10"/><line class="cls-5" x1="77.87" y1="221.09" x2="271.84" y2="221.09"/><line class="cls-5" x1="77.87" y1="255.85" x2="271.84" y2="255.85"/><line class="cls-5" x1="77.87" y1="290.61" x2="271.84" y2="290.61"/></svg>