<svg id="Layer_1" data-name="Layer 1" xmlns="http://www.w3.org/2000/svg" viewBox="0 0 353.32 351.93"><defs><style>.cls-1{fill:#1c75bc;}.cls-2,.cls-3,.cls-6{fill:none;stroke-miterlimit:10;}.cls-2,.cls-3{stroke:#231f20;}.cls-2{stroke-width:5px;}.cls-3,.cls-6{stroke-width:7px;}.cls-4{fill:#58595b;}.cls-5{fill:#e6e7e8;}.cls-6{stroke:#bcbec0;}</style></defs><path class="cls-1" d="M23.84,16.42a10,10,0,0,0-10,10V353.35a10,10,0,0,0,10,10H352.16a10,10,0,0,0,10-10V61.88c0-5.5-3.21-13.15-7.14-17L333.15,23.42c-3.93-3.85-11.64-7-17.14-7Z" transform="translate(-11.34 -13.92)"/><path class="cls-2" d="M23.84,16.42a10,10,0,0,0-10,10V353.35a10,10,0,0,0,10,10H352.16a10,10,0,0,0,10-10V61.88c0-5.5-3.21-13.15-7.14-17L333.15,23.42c-3.93-3.85-11.64-7-17.14-7Z" transform="translate(-11.34 -13.92)"/><path class="cls-3" d="M57.64,16.42" transform="translate(-11.34 -13.92)"/><rect class="cls-4" x="46.3" y="2.5" width="236.38" height="117.5" rx="10"/><rect class="cls-2" x="46.3" y="2.5" width="236.38" height="117.5" rx="10"/><path class="cls-3" d="M209.9,42.84" transform="translate(-11.34 -13.92)"/><rect class="cls-5" x="97.05" y="2.5" width="185.63" height="117.5" rx="10"/><rect class="cls-2" x="97.05" y="2.5" width="185.63" height="117.5" rx="10"/><rect class="cls-4" x="211.38" y="19.19" width="56.09" height="84.12"/><rect class="cls-5" x="50.47" y="159.63" width="253.77" height="178.68" rx="10"/><rect class="cls-2" x="50.47" y="159.63" width="253.77" height="178.68" rx="10"/><line class="cls-6" x1="80.37" y1="223.59" x2="274.34" y2="223.59"/><line class="cls-6" x1="80.37" y1="258.35" x2="274.34" y2="258.35"/><line class="cls-6" x1="80.37" y1="293.11" x2="274.34" y2="293.11"/></svg>