<svg id="Layer_1" data-name="Layer 1" xmlns="http://www.w3.org/2000/svg" viewBox="0 0 204.04 187.87"><defs><style>.cls-1{fill:none;}.cls-1,.cls-2,.cls-3,.cls-4{stroke:#231f20;stroke-miterlimit:10;stroke-width:4px;}.cls-2{fill:#00aeef;}.cls-3{fill:#39b54a;}.cls-4{fill:#f15a29;}</style></defs><polygon class="cls-1" points="102.02 68.94 18.94 68.94 102.02 18.94 18.94 118.94 102.02 68.94"/><polygon class="cls-1" points="102.02 168.94 18.94 68.94 102.02 118.94 18.94 118.94 102.02 168.94"/><polyline class="cls-1" points="102.02 68.94 185.1 93.94 102.02 18.94"/><polyline class="cls-1" points="102.02 168.94 185.1 93.94 102.02 118.94"/><circle class="cls-2" cx="102.02" cy="18.94" r="16.94"/><circle class="cls-2" cx="102.02" cy="68.94" r="16.94"/><circle class="cls-2" cx="102.02" cy="118.94" r="16.94"/><circle class="cls-2" cx="102.02" cy="168.94" r="16.94"/><circle class="cls-3" cx="18.94" cy="118.94" r="16.94"/><circle class="cls-4" cx="185.1" cy="93.94" r="16.94"/><path class="cls-2" d="M136.68,99.11" transform="translate(-4.85 -5.17)"/><path class="cls-2" d="M89.94,24.11" transform="translate(-4.85 -5.17)"/><circle class="cls-3" cx="18.94" cy="68.94" r="16.94"/></svg>