<svg id="Layer_1" data-name="Layer 1" xmlns="http://www.w3.org/2000/svg" viewBox="0 0 200.04 183.87"><defs><style>.cls-1{fill:none;stroke:#808285;}.cls-1,.cls-5{stroke-miterlimit:10;stroke-width:5px;}.cls-2,.cls-5{fill:#00aeef;}.cls-3{fill:#39b54a;}.cls-4{fill:#f15a29;}.cls-5{stroke:#231f20;}</style></defs><polygon class="cls-1" points="100.02 66.94 16.94 66.94 100.02 16.94 16.94 116.94 100.02 66.94"/><polygon class="cls-1" points="100.02 166.94 16.94 66.94 100.02 116.94 16.94 116.94 100.02 166.94"/><polyline class="cls-1" points="100.02 66.94 183.1 91.94 100.02 16.94"/><polyline class="cls-1" points="100.02 166.94 183.1 91.94 100.02 116.94"/><circle class="cls-2" cx="100.02" cy="16.94" r="16.94"/><circle class="cls-2" cx="100.02" cy="66.94" r="16.94"/><circle class="cls-2" cx="100.02" cy="116.94" r="16.94"/><circle class="cls-2" cx="100.02" cy="166.94" r="16.94"/><circle class="cls-3" cx="16.94" cy="116.94" r="16.94"/><circle class="cls-4" cx="183.1" cy="91.94" r="16.94"/><path class="cls-2" d="M136.68,99.11" transform="translate(-6.85 -7.17)"/><path class="cls-5" d="M89.94,24.11" transform="translate(-6.85 -7.17)"/><circle class="cls-3" cx="16.94" cy="66.94" r="16.94"/></svg>