<svg id="Layer_1" data-name="Layer 1" xmlns="http://www.w3.org/2000/svg" viewBox="0 0 422.23 514.56"><defs><style>.cls-1,.cls-8{fill:#fff;}.cls-2,.cls-3{fill:none;}.cls-2,.cls-3,.cls-8{stroke:#808285;}.cls-2,.cls-3,.cls-7,.cls-8{stroke-miterlimit:10;}.cls-2,.cls-8{stroke-width:8px;}.cls-3,.cls-7{stroke-width:5px;}.cls-4,.cls-7{fill:#00aeef;}.cls-5{fill:#39b54a;}.cls-6{fill:#f15a29;}.cls-7{stroke:#231f20;}.cls-9{fill:#808285;}.cls-10{fill:#ffde17;}.cls-11{fill:#6d6e71;}.cls-12{fill:#bcbec0;}.cls-13{fill:#ed1c24;}</style></defs><path class="cls-1" d="M22.67,15.5a5,5,0,0,0-5,5V517.06a5,5,0,0,0,5,5H426.89a5,5,0,0,0,5-5V100.67a11.21,11.21,0,0,0-4-8L327.58,18.47a17.73,17.73,0,0,0-9-3Z" transform="translate(-13.67 -11.5)"/><path class="cls-2" d="M22.67,15.5a5,5,0,0,0-5,5V517.06a5,5,0,0,0,5,5H426.89a5,5,0,0,0,5-5V100.67a11.21,11.21,0,0,0-4-8L327.58,18.47a17.73,17.73,0,0,0-9-3Z" transform="translate(-13.67 -11.5)"/><polygon class="cls-3" points="146.36 186.63 63.27 186.63 146.36 136.63 63.27 236.63 146.36 186.63"/><polygon class="cls-3" points="146.36 286.63 63.27 186.63 146.36 236.63 63.27 236.63 146.36 286.63"/><polyline class="cls-3" points="146.36 186.63 229.44 211.63 146.36 136.63"/><polyline class="cls-3" points="146.36 286.63 229.44 211.63 146.36 236.63"/><circle class="cls-4" cx="146.36" cy="136.63" r="16.94"/><circle class="cls-4" cx="146.36" cy="186.63" r="16.94"/><circle class="cls-4" cx="146.36" cy="236.63" r="16.94"/><circle class="cls-4" cx="146.36" cy="286.63" r="16.94"/><circle class="cls-5" cx="63.28" cy="236.63" r="16.94"/><circle class="cls-6" cx="229.44" cy="211.63" r="16.94"/><path class="cls-4" d="M189.83,223.13" transform="translate(-13.67 -11.5)"/><path class="cls-7" d="M143.09,148.13" transform="translate(-13.67 -11.5)"/><circle class="cls-5" cx="63.28" cy="186.63" r="16.94"/><path class="cls-8" d="M227,93.41" transform="translate(-13.67 -11.5)"/><polyline class="cls-2" points="309.89 91.92 309.89 4 309.89 91.92 418.23 91.92"/><rect class="cls-9" x="216.61" y="279.98" width="12.93" height="64.76" rx="5"/><rect class="cls-9" x="75.21" y="368.56" width="111.61" height="22"/><path class="cls-10" d="M157.72,430a5,5,0,0,0,5,5H380a5,5,0,0,0,5-5V352.09a5,5,0,0,0-5-5H162.72a5,5,0,0,0-5,5Z" transform="translate(-13.67 -11.5)"/><polygon class="cls-10" points="75.95 286.03 24.63 396.74 14.8 417.94 104.14 404.45 135.62 334 75.95 286.03"/><rect class="cls-11" x="152.19" y="391.37" width="212.84" height="66.21" rx="25"/><path class="cls-10" d="M316.14,266.26a8.48,8.48,0,0,0-7.07,4.55l-34.72,76.38c-1.14,2.5.18,4.55,2.93,4.55h9.43a8.43,8.43,0,0,0,7.05-4.56L328,270.82c1.13-2.51-.2-4.56-2.95-4.56Z" transform="translate(-13.67 -11.5)"/><rect class="cls-10" x="348.73" y="254.76" width="17.2" height="97.22" rx="5"/><rect class="cls-10" x="298.57" y="254.76" width="62.15" height="14.98" rx="5"/><circle class="cls-12" cx="186.82" cy="424.48" r="14.97"/><circle class="cls-12" cx="332.57" cy="424.48" r="14.97"/><circle class="cls-12" cx="259.45" cy="424.48" r="14.97"/><path class="cls-13" d="M335.94,266.26V253.83a5,5,0,0,1,5-5h10.59a5,5,0,0,1,5,5v12.43" transform="translate(-13.67 -11.5)"/><rect class="cls-9" x="371.36" y="344.75" width="16.44" height="64.76" rx="5"/><line class="cls-8" x1="229.53" y1="144.81" x2="387.8" y2="144.81"/><line class="cls-8" x1="229.53" y1="174.13" x2="387.8" y2="174.13"/><line class="cls-8" x1="259.45" y1="199.79" x2="387.8" y2="199.79"/></svg>