<svg id="Layer_1" data-name="Layer 1" xmlns="http://www.w3.org/2000/svg" viewBox="0 0 422.23 514.56"><defs><style>.cls-1,.cls-9{fill:#fff;}.cls-11,.cls-2,.cls-3{fill:none;}.cls-11,.cls-12,.cls-14,.cls-16,.cls-2,.cls-3,.cls-4,.cls-5,.cls-6,.cls-8{stroke:#231f20;}.cls-11,.cls-12,.cls-14,.cls-16,.cls-2,.cls-3,.cls-4,.cls-5,.cls-6,.cls-8,.cls-9{stroke-miterlimit:10;}.cls-2,.cls-9{stroke-width:8px;}.cls-3,.cls-8{stroke-width:5px;}.cls-4,.cls-7,.cls-8{fill:#00aeef;}.cls-11,.cls-12,.cls-14,.cls-16,.cls-4,.cls-5,.cls-6{stroke-width:6px;}.cls-5{fill:#39b54a;}.cls-6{fill:#f15a29;}.cls-9{stroke:#808285;}.cls-10,.cls-12{fill:#808285;}.cls-13,.cls-14{fill:#ffde17;}.cls-15{fill:#6d6e71;}.cls-16{fill:#bcbec0;}.cls-17{fill:#ed1c24;}</style></defs><path class="cls-1" d="M22.67,15.5a5,5,0,0,0-5,5V517.06a5,5,0,0,0,5,5H426.89a5,5,0,0,0,5-5V100.67a11.21,11.21,0,0,0-4-8L327.58,18.47a17.73,17.73,0,0,0-9-3Z" transform="translate(-13.67 -11.5)"/><path class="cls-2" d="M22.67,15.5a5,5,0,0,0-5,5V517.06a5,5,0,0,0,5,5H426.89a5,5,0,0,0,5-5V100.67a11.21,11.21,0,0,0-4-8L327.58,18.47a17.73,17.73,0,0,0-9-3Z" transform="translate(-13.67 -11.5)"/><polygon class="cls-3" points="146.36 186.63 63.27 186.63 146.36 136.63 63.27 236.63 146.36 186.63"/><polygon class="cls-3" points="146.36 286.63 63.27 186.63 146.36 236.63 63.27 236.63 146.36 286.63"/><polyline class="cls-3" points="146.36 186.63 229.44 211.63 146.36 136.63"/><polyline class="cls-3" points="146.36 286.63 229.44 211.63 146.36 236.63"/><circle class="cls-4" cx="146.36" cy="136.63" r="16.94"/><circle class="cls-4" cx="146.36" cy="186.63" r="16.94"/><circle class="cls-4" cx="146.36" cy="236.63" r="16.94"/><circle class="cls-4" cx="146.36" cy="286.63" r="16.94"/><circle class="cls-5" cx="63.28" cy="236.63" r="16.94"/><circle class="cls-6" cx="229.44" cy="211.63" r="16.94"/><path class="cls-7" d="M189.83,223.13" transform="translate(-13.67 -11.5)"/><path class="cls-8" d="M143.09,148.13" transform="translate(-13.67 -11.5)"/><circle class="cls-5" cx="63.28" cy="186.63" r="16.94"/><path class="cls-9" d="M227,93.41" transform="translate(-13.67 -11.5)"/><polyline class="cls-2" points="309.89 91.92 309.89 4 309.89 91.92 418.23 91.92"/><line class="cls-9" x1="229.53" y1="144.81" x2="387.8" y2="144.81"/><line class="cls-9" x1="229.53" y1="174.13" x2="387.8" y2="174.13"/><line class="cls-9" x1="259.45" y1="199.79" x2="387.8" y2="199.79"/><rect class="cls-10" x="221.64" y="295.74" width="12.55" height="62.86" rx="5"/><rect class="cls-11" x="221.64" y="295.74" width="12.55" height="62.86" rx="5"/><rect class="cls-12" x="84.4" y="381.7" width="108.33" height="21.35"/><path class="cls-13" d="M382.44,361.21c1.69,0,3.07,2.25,3.07,5v75.33a5,5,0,0,1-5,5H169.89a5,5,0,0,1-5-5V366.21a5,5,0,0,1,5-5H270.2a8.82,8.82,0,0,0,7.21-4.49l34.18-69.48a8.81,8.81,0,0,1,7.21-4.49h56.45a4.94,4.94,0,0,1,4.94,5l-.77,68.46C379.39,359,380.75,361.21,382.44,361.21Z" transform="translate(-13.67 -11.5)"/><path class="cls-11" d="M382.44,361.21c1.69,0,3.07,2.25,3.07,5v75.33a5,5,0,0,1-5,5H169.89a5,5,0,0,1-5-5V366.21a5,5,0,0,1,5-5H270.2a8.82,8.82,0,0,0,7.21-4.49l34.18-69.48a8.81,8.81,0,0,1,7.21-4.49h56.45a4.94,4.94,0,0,1,4.94,5l-.77,68.46C379.39,359,380.75,361.21,382.44,361.21Z" transform="translate(-13.67 -11.5)"/><polygon class="cls-14" points="85.12 301.61 35.31 409.05 25.77 429.63 112.49 416.54 143.04 348.16 85.12 301.61"/><rect class="cls-15" x="159.12" y="403.85" width="206.58" height="64.27" rx="25"/><rect class="cls-11" x="159.12" y="403.85" width="206.58" height="64.27" rx="25"/><rect class="cls-10" x="371.84" y="358.59" width="15.95" height="62.86" rx="5"/><rect class="cls-11" x="371.84" y="358.59" width="15.95" height="62.86" rx="5"/><circle class="cls-16" cx="192.73" cy="435.98" r="14.53"/><circle class="cls-16" cx="334.19" cy="435.98" r="14.53"/><circle class="cls-16" cx="263.22" cy="435.98" r="14.53"/><path class="cls-17" d="M337.86,282.75V270.84a5,5,0,0,1,5-5h10a5,5,0,0,1,5,5v11.91" transform="translate(-13.67 -11.5)"/><path class="cls-11" d="M337.86,282.75V270.84a5,5,0,0,1,5-5h10a5,5,0,0,1,5,5v11.91" transform="translate(-13.67 -11.5)"/><path class="cls-1" d="M321.7,302.6a8.89,8.89,0,0,1,7.24-4.47h32.54a5,5,0,0,1,5,5v53.08a5,5,0,0,1-5,5H297.4c-2.75,0-4-2-2.77-4.47Z" transform="translate(-13.67 -11.5)"/><path class="cls-11" d="M321.7,302.6a8.89,8.89,0,0,1,7.24-4.47h32.54a5,5,0,0,1,5,5v53.08a5,5,0,0,1-5,5H297.4c-2.75,0-4-2-2.77-4.47Z" transform="translate(-13.67 -11.5)"/></svg>