<svg id="Layer_1" data-name="Layer 1" xmlns="http://www.w3.org/2000/svg" viewBox="0 0 422.22 514.59"><defs><style>.cls-1,.cls-8{fill:#fff;}.cls-2,.cls-3{fill:none;}.cls-2,.cls-3,.cls-8{stroke:#808285;}.cls-2,.cls-3,.cls-7,.cls-8{stroke-miterlimit:10;}.cls-2,.cls-8{stroke-width:8px;}.cls-3,.cls-7{stroke-width:5px;}.cls-4,.cls-7{fill:#00aeef;}.cls-5{fill:#39b54a;}.cls-6{fill:#f15a29;}.cls-7{stroke:#231f20;}.cls-9{fill:#808285;}.cls-10{fill:#ffde17;}.cls-11{fill:#6d6e71;}.cls-12{fill:#bcbec0;}.cls-13{fill:#ed1c24;}</style></defs><path class="cls-1" d="M9,4A5,5,0,0,0,4,9V505.56a5,5,0,0,0,5,5H413.22a5,5,0,0,0,5-5V89.17a11.21,11.21,0,0,0-4-8L313.91,7a17.67,17.67,0,0,0-9-3Z" transform="translate(0 0.03)"/><path class="cls-2" d="M9,4A5,5,0,0,0,4,9V505.56a5,5,0,0,0,5,5H413.22a5,5,0,0,0,5-5V89.17a11.21,11.21,0,0,0-4-8L313.91,7a17.67,17.67,0,0,0-9-3Z" transform="translate(0 0.03)"/><polygon class="cls-3" points="146.36 186.66 63.27 186.66 146.36 136.66 63.27 236.66 146.36 186.66"/><polygon class="cls-3" points="146.36 286.66 63.27 186.66 146.36 236.66 63.27 236.66 146.36 286.66"/><polyline class="cls-3" points="146.36 186.66 229.44 211.66 146.36 136.66"/><polyline class="cls-3" points="146.36 286.66 229.44 211.66 146.36 236.66"/><circle class="cls-4" cx="146.36" cy="136.66" r="16.94"/><circle class="cls-4" cx="146.36" cy="186.66" r="16.94"/><circle class="cls-4" cx="146.36" cy="236.66" r="16.94"/><circle class="cls-4" cx="146.36" cy="286.66" r="16.94"/><circle class="cls-5" cx="63.28" cy="236.66" r="16.94"/><circle class="cls-6" cx="229.44" cy="211.66" r="16.94"/><path class="cls-4" d="M176.16,211.63" transform="translate(0 0.03)"/><path class="cls-7" d="M129.42,136.63" transform="translate(0 0.03)"/><circle class="cls-5" cx="63.28" cy="186.66" r="16.94"/><path class="cls-8" d="M213.33,81.91" transform="translate(0 0.03)"/><polyline class="cls-2" points="309.89 91.95 309.89 4.03 309.89 91.95 418.23 91.95"/><rect class="cls-9" x="216.61" y="280.01" width="12.93" height="64.76" rx="5"/><rect class="cls-9" x="75.21" y="368.59" width="111.61" height="22"/><path class="cls-10" d="M144.05,418.5a5,5,0,0,0,5,5H366.33a5,5,0,0,0,5-5V340.59a5,5,0,0,0-5-5H149.05a5,5,0,0,0-5,5Z" transform="translate(0 0.03)"/><polygon class="cls-10" points="75.95 286.06 24.63 396.77 14.8 417.97 104.14 404.48 135.62 334.03 75.95 286.06"/><rect class="cls-11" x="152.19" y="391.4" width="212.84" height="66.21" rx="25"/><path class="cls-10" d="M302.47,254.76a8.48,8.48,0,0,0-7.07,4.55l-34.72,76.38c-1.14,2.5.18,4.55,2.93,4.55H273a8.43,8.43,0,0,0,7-4.56l34.24-76.36c1.13-2.51-.2-4.56-2.95-4.56Z" transform="translate(0 0.03)"/><rect class="cls-10" x="348.73" y="254.79" width="17.2" height="97.22" rx="5"/><rect class="cls-10" x="298.57" y="254.79" width="62.15" height="14.98" rx="5"/><circle class="cls-12" cx="186.82" cy="424.51" r="14.97"/><circle class="cls-12" cx="332.57" cy="424.51" r="14.97"/><circle class="cls-12" cx="259.45" cy="424.51" r="14.97"/><path class="cls-13" d="M322.27,254.76V242.33a5,5,0,0,1,5-5h10.59a5,5,0,0,1,5,5v12.43" transform="translate(0 0.03)"/><rect class="cls-9" x="371.36" y="344.78" width="16.44" height="64.76" rx="5"/><line class="cls-2" x1="229.53" y1="144.84" x2="387.8" y2="144.84"/><line class="cls-2" x1="229.53" y1="174.16" x2="387.8" y2="174.16"/><line class="cls-2" x1="259.45" y1="199.82" x2="387.8" y2="199.82"/></svg>